<?xml version="1.0" encoding="utf-8"?>
<!-- Generator: Adobe Illustrator 18.0.0, SVG Export Plug-In . SVG Version: 6.00 Build 0)  -->
<!DOCTYPE svg PUBLIC "-//W3C//DTD SVG 1.1//EN" "http://www.w3.org/Graphics/SVG/1.1/DTD/svg11.dtd">
<svg version="1.1" id="Layer_1" xmlns="http://www.w3.org/2000/svg" xmlns:xlink="http://www.w3.org/1999/xlink" x="0px" y="0px"
	 viewBox="0 0 821.4 353.7" enable-background="new 0 0 821.4 353.7" xml:space="preserve">
<g opacity="0.8">
	<rect x="0" y="0" width="682.3" height="214.5"/>
</g>
<g>
	<path fill="#307FB7" d="M112.9,161.5c-5.1,3.1-15.3,6.3-28.3,6.3c-30.2,0-53-23.6-53-67c0-41.5,22.8-69.6,56-69.6
		c13.4,0,21.8,3.5,25.5,5.9l-3.3,14C104.4,48,97,45.6,88,45.6c-25.2,0-41.9,19.8-41.9,54.6c0,32.4,15.1,53.3,41.2,53.3
		c8.4,0,17-2.2,22.6-5.5L112.9,161.5z"/>
	<path fill="#FFFFFF" d="M195.2,165.9l-1.1-12h-0.5C189.3,161.4,181,168,170,168c-15.6,0-23.6-13.6-23.6-27.3
		c0-23,16.6-35.6,46.3-35.4v-2c0-7.9-1.8-22-17.5-22c-7.2,0-14.6,2.8-20.1,7.1L152,77.1c6.4-5.1,15.6-8.4,25.3-8.4
		c23.6,0,29.3,19.8,29.3,38.9v35.6c0,8.3,0.3,16.3,1.3,22.8H195.2z M193.1,117.3c-15.3-0.4-32.6,2.9-32.6,21.4
		c0,11.2,6,16.5,13.2,16.5c10,0,16.4-7.9,18.6-15.9c0.5-1.8,0.8-3.7,0.8-5.5V117.3z"/>
	<path fill="#FFFFFF" d="M319.5,70.8c-0.3,6.9-0.6,14.5-0.6,26.1v55.2c0,21.8-3.5,35.2-11,43.4c-7.5,8.6-18.3,11.4-28,11.4
		c-9.2,0-19.4-2.8-25.6-7.9l3.5-13.2c5.1,3.9,13.1,7.5,22.6,7.5c14.3,0,24.8-9.2,24.8-33.2v-10.6h-0.3c-4.3,8.8-12.6,15.9-24.5,15.9
		c-19.1,0-32.8-20-32.8-46.4c0-32.2,17-50.5,34.7-50.5c13.4,0,20.7,8.6,24,16.5h0.3l0.6-14.3H319.5z M305,108.3
		c0-2.9-0.2-5.5-0.8-7.9c-2.5-10-9.4-18.3-19.6-18.3c-13.4,0-22.9,14-22.9,36c0,18.7,7.6,34.2,22.8,34.2c8.6,0,16.4-6.7,19.4-17.7
		c0.8-2.9,1.1-6.3,1.1-9.2V108.3z"/>
	<path fill="#FFFFFF" d="M432.5,26.4v115c0,8.4,0.2,18.1,0.6,24.6h-12.6l-0.6-16.5h-0.3c-4.3,10.6-13.7,18.7-26.3,18.7
		c-18.6,0-33-19.5-33-48.3c-0.2-31.6,15.8-51.1,34.5-51.1c11.8,0,19.7,6.9,23.2,14.5h0.3V26.4H432.5z M418.5,109.5
		c0-2.2-0.2-5.1-0.6-7.3c-2.1-11-9.7-20-20.2-20c-14.5,0-23.1,15.7-23.1,36.7c0,19.3,7.6,35.2,22.8,35.2c9.4,0,18-7.7,20.5-20.6
		c0.5-2.4,0.6-4.7,0.6-7.5V109.5z"/>
	<path fill="#FFFFFF" d="M522.3,165.9l-1.1-12h-0.5c-4.3,7.5-12.6,14.1-23.6,14.1c-15.6,0-23.6-13.6-23.6-27.3
		c0-23,16.6-35.6,46.3-35.4v-2c0-7.9-1.8-22-17.5-22c-7.2,0-14.6,2.8-20.1,7.1l-3.2-11.4c6.4-5.1,15.6-8.4,25.3-8.4
		c23.6,0,29.3,19.8,29.3,38.9v35.6c0,8.3,0.3,16.3,1.3,22.8H522.3z M520.2,117.3c-15.3-0.4-32.6,2.9-32.6,21.4
		c0,11.2,6,16.5,13.2,16.5c10,0,16.4-7.9,18.6-15.9c0.5-1.8,0.8-3.7,0.8-5.5V117.3z"/>
	<path fill="#FFFFFF" d="M578.3,148.2c4.1,3.3,11.5,6.9,18.5,6.9c10.2,0,15-6.3,15-14.1c0-8.3-4-12.8-14.3-17.5
		c-13.8-6.1-20.4-15.5-20.4-26.9c0-15.3,10-27.9,26.6-27.9c7.8,0,14.6,2.8,18.9,5.9l-3.5,12.6c-3-2.4-8.6-5.5-15.8-5.5
		c-8.3,0-12.9,5.9-12.9,13c0,7.9,4.6,11.4,14.6,16.1c13.4,6.3,20.2,14.5,20.2,28.7c0,16.7-10.5,28.5-28.8,28.5
		c-8.4,0-16.2-2.6-21.6-6.5L578.3,148.2z"/>
</g>
<g opacity="0.8">
	<rect x="139.2" y="138.7" width="682.3" height="214.5"/>
</g>
<g opacity="0.8">
	<path fill="#307FB7" d="M206.9,304.6v-56.2L173,172.1h15.8l15.1,36.5c4.1,10,7.3,18.1,10.7,27.3h0.3c3-8.6,6.7-17.3,10.8-27.3
		l15.4-36.5h15.8l-36,76v56.4H206.9z"/>
	<path fill="#FFFFFF" d="M350.2,256.2c0,35.2-19.7,50.5-38.4,50.5c-20.9,0-36.9-18.9-36.9-48.9c0-31.8,16.9-50.5,38.2-50.5
		C335.2,207.3,350.2,227.2,350.2,256.2z M289.1,257.2c0,20.8,9.7,36.5,23.4,36.5c13.4,0,23.4-15.5,23.4-36.9
		c0-16.1-6.5-36.5-23.1-36.5S289.1,239.1,289.1,257.2z"/>
	<path fill="#FFFFFF" d="M391.8,235.2c0-9.8-0.2-17.9-0.6-25.7h12.4l0.8,15.7h0.3c3.8-9,12.7-17.9,25.5-17.9
		c10.7,0,27.2,7.9,27.2,40.5v56.8h-14v-54.8c0-15.3-4.6-28.1-17.8-28.1c-9.2,0-16.4,8.1-18.8,17.7c-0.6,2.2-1,5.1-1,8.1v57.2h-14
		V235.2z"/>
	<path fill="#FFFFFF" d="M570.5,165.1v115c0,8.4,0.2,18.1,0.6,24.6h-12.6l-0.6-16.5h-0.3c-4.3,10.6-13.7,18.7-26.3,18.7
		c-18.6,0-33-19.5-33-48.3c-0.2-31.6,15.8-51.1,34.5-51.1c11.8,0,19.7,6.9,23.2,14.5h0.3v-56.8H570.5z M556.5,248.2
		c0-2.2-0.2-5.1-0.6-7.3c-2.1-11-9.7-20-20.2-20c-14.5,0-23.1,15.7-23.1,36.7c0,19.3,7.6,35.2,22.8,35.2c9.4,0,18-7.7,20.5-20.6
		c0.5-2.4,0.6-4.7,0.6-7.5V248.2z"/>
	<path fill="#FFFFFF" d="M625.4,260.2c0.3,23.4,12.4,33,26.4,33c10,0,16.1-2.2,21.3-4.9l2.4,12.4c-4.9,2.8-13.4,5.9-25.6,5.9
		c-23.7,0-37.9-19.3-37.9-47.9s13.7-51.3,36.1-51.3c25.2,0,31.8,27.3,31.8,44.8c0,3.5-0.3,6.3-0.5,8.1H625.4z M666.5,247.8
		c0.2-11-3.7-28.1-19.4-28.1c-14.2,0-20.4,16.1-21.5,28.1H666.5z"/>
	<path fill="#FFFFFF" d="M721.3,239.1c0-11.2-0.2-20.8-0.6-29.7h12.3l0.5,18.7h0.6c3.5-12.8,11.9-20.8,21.3-20.8
		c1.6,0,2.7,0.2,4,0.6v16.3c-1.4-0.4-2.9-0.6-4.8-0.6c-9.9,0-16.9,9.2-18.8,22.2c-0.3,2.4-0.6,5.1-0.6,8.1v50.7h-13.8V239.1z"/>
</g>
</svg>
